<?xml version="1.0" encoding="utf-8"?>
<!-- Generator: Adobe Illustrator 28.0.0, SVG Export Plug-In . SVG Version: 6.00 Build 0)  -->
<svg version="1.1"
	 id="svg21848" xmlns:cc="http://creativecommons.org/ns#" xmlns:rdf="http://www.w3.org/1999/02/22-rdf-syntax-ns#" xmlns:dc="http://purl.org/dc/elements/1.1/" xmlns:svg="http://www.w3.org/2000/svg"
	 xmlns="http://www.w3.org/2000/svg" xmlns:xlink="http://www.w3.org/1999/xlink" x="0px" y="0px" viewBox="0 0 872.2 152"
	 style="enable-background:new 0 0 872.2 152;" xml:space="preserve">
<style type="text/css">
	.st0{clip-path:url(#SVGID_00000046338045852901906550000008850746979879197071_);}
	.st1{fill:#FF0058;}
	.st2{fill:#080808;}
</style>
<g id="logo-group">
	
		<image style="display:none;overflow:visible;enable-background:new    ;" width="201" height="201" id="container" xlink:href="E5074A907F543A2E.png"  transform="matrix(2.3881 0 0 2.3881 461.25 -20)">
	</image>
	<g id="logo-center" transform="translate(34.75 0)">
		<g>
			<defs>
				<polygon id="SVGID_1_" points="-81.8,-307 -80.8,-307 -81.8,-306 				"/>
			</defs>
			<defs>
				<polygon id="SVGID_00000078725850726367914140000002070398479254075556_" points="-83.8,-309 -84.8,-309 -83.8,-310 				"/>
			</defs>
			<clipPath id="SVGID_00000154419039178263155630000016118889563913859003_">
				<use xlink:href="#SVGID_1_"  style="overflow:visible;"/>
			</clipPath>
			
				<clipPath id="SVGID_00000073687660147995527090000004116196808876917436_" style="clip-path:url(#SVGID_00000154419039178263155630000016118889563913859003_);">
				<use xlink:href="#SVGID_00000078725850726367914140000002070398479254075556_"  style="overflow:visible;"/>
			</clipPath>
			<g style="display:none;clip-path:url(#SVGID_00000073687660147995527090000004116196808876917436_);enable-background:new    ;">
				
					<image style="display:inline;overflow:visible;" width="201" height="201" id="icon_container" xlink:href="E5074A907F543A2E.png"  transform="matrix(0.75 0 0 0.75 -158.125 -383.375)">
				</image>
			</g>
		</g>
		<g id="slogan" transform="translate(0 0)">
		</g>
		<g id="title" transform="translate(0 0)">
			
				<g id="path21857" transform="translate(0 301.924) translate(231.72148249999987 63.176) scale(0.75) translate(-60.77825 50.4)">
				<path class="st1" d="M-23.9-426.1c-2.7,0-5.4-0.8-7.8-2.1l4.8-13L-32-454l-17.6,43.3H-38l2.8-7.6c3.4,1.4,7.1,2.1,11.2,2.1
					c2.4,0,4.6-0.3,6.7-0.8l-3.7-9.5C-22-426.3-23-426.1-23.9-426.1z"/>
				<polygon class="st2" points="-17.2,-461.1 -29.1,-461.1 -9.2,-410.7 2.9,-410.7 				"/>
			</g>
			
				<g id="path21859" transform="translate(0 301.924) translate(276.1255174999999 63.23) scale(0.75) translate(-119.98363 50.328)">
				<path class="st1" d="M41.5-420.5v9.9H9.7V-461H21v40.5L41.5-420.5z"/>
			</g>
			
				<g id="path21861" transform="translate(0 301.924) translate(301.7679199999999 62.797999999999995) scale(0.75) translate(-154.1735 50.904)">
				<path class="st1" d="M71.3-420c4.9,0,9.6-2.4,12.5-6.3l10.4,4.6c-4.8,7.1-13.1,11.6-23,11.6c-15.6,0-27.3-11.1-27.3-25.8
					c0-14.5,11.7-25.6,27.3-25.6c10,0,18.4,4.5,23.2,11.6l-10.4,4.7c-3-3.9-7.6-6.3-12.6-6.3c-8.4,0-16.1,6.9-16.1,15.8
					C55.1-427.1,62.9-420,71.3-420L71.3-420z"/>
			</g>
			
				<g id="path21863" transform="translate(0 301.924) translate(342.25273249999987 63.176) scale(0.75) translate(-208.15325 50.4)">
				<path class="st1" d="M123.5-426.1c-2.7,0-5.4-0.8-7.8-2.1l4.8-13l-5.1-12.8l-17.6,43.3h11.5l2.8-7.6c3.4,1.4,7.1,2.1,11.2,2.1
					c2.4,0,4.6-0.3,6.7-0.8l-3.7-9.5C125.4-426.3,124.4-426.1,123.5-426.1z"/>
				<polygon class="st2" points="130.2,-461.1 118.3,-461.1 138.2,-410.7 150.2,-410.7 				"/>
			</g>
			
				<g id="path21865" transform="translate(0 301.924) translate(386.6567674999999 63.23) scale(0.75) translate(-267.35863 50.328)">
				<path class="st1" d="M188.9-420.5v9.9H157V-461h11.3v40.5L188.9-420.5z"/>
			</g>
			
				<g id="path21867" transform="translate(0 301.924) translate(412.70585749999987 63.176) scale(0.75) translate(-302.09075 50.4)">
				<path class="st1" d="M217.4-426.1c-2.7,0-5.4-0.8-7.8-2.1l4.8-13l-5.1-12.8l-17.6,43.3h11.5l2.8-7.6c3.4,1.4,7.1,2.1,11.2,2.1
					c2.4,0,4.6-0.3,6.7-0.8l-3.7-9.5C219.3-426.3,218.3-426.1,217.4-426.1z"/>
				<polygon class="st2" points="224.2,-461.1 212.2,-461.1 232.2,-410.7 244.2,-410.7 				"/>
			</g>
			
				<g id="path21869" transform="translate(0 301.924) translate(470.9397949999999 62.797999999999995) scale(0.75) translate(-379.736 50.904)">
				<path class="st1" d="M296.8-420c4.9,0,9.6-2.4,12.5-6.3l10.4,4.6c-4.8,7.1-13.1,11.6-23,11.6c-15.6,0-27.3-11.1-27.3-25.8
					c0-14.5,11.7-25.6,27.3-25.6c10,0,18.4,4.5,23.2,11.6l-10.4,4.7c-3-3.9-7.6-6.3-12.6-6.3c-8.4,0-16.1,6.9-16.1,15.8
					C280.7-427.1,288.5-420,296.8-420L296.8-420z"/>
			</g>
			
				<g id="path21871" transform="translate(0 301.924) translate(511.7021974999999 62.852) scale(0.75) translate(-434.08587 50.832)">
				<path class="st1" d="M378.3-435.9c0,14.8-11.7,25.9-27.3,25.9c-15.6,0-27.3-11.1-27.3-25.9c0-14.5,11.7-25.6,27.3-25.6
					C366.6-461.5,378.3-450.5,378.3-435.9z M351.3-420c8.3,0,15.8-7,15.8-15.9c0-8.9-7.6-15.8-15.8-15.8c-8.4,0-16.1,6.9-16.1,15.8
					C335.1-427.1,342.9-420,351.3-420L351.3-420z"/>
			</g>
			
				<g id="path21873" transform="translate(0 301.924) translate(558.4653574999999 63.176) scale(0.75) translate(-496.43675 50.4)">
				<path class="st1" d="M396.2-461.1l33.6,50.4h-11.6l-21.6-32.8v32.8h-10.5v-50.4H396.2z M429.8-461.1v39
					c-7.1-4.3-9.9-12.6-10.4-14.6v-24.3H429.8z"/>
			</g>
			
				<g id="path21875" transform="translate(0 301.924) translate(596.6509474999998 62.744) scale(0.75) translate(-547.35087 50.976)">
				<path class="st1" d="M461.5-440.7c7.5,2.2,15.9,4.8,15.9,15.4c0,9.2-7.4,15.2-18.9,15.2c-7.7,0-15.7-3-21.5-7.8l4.3-9.1
					c4.9,4.3,12.1,7.4,17.4,7.4c4.2,0,6.8-1.9,6.8-5c0-4.2-4.6-5.5-9.9-7.1c-7.3-2.2-15.7-4.6-15.7-14.9c0-9.1,7.3-15,18.8-15
					c6.6,0,13.4,2,18.4,5.4l-4.2,9.3c-5.1-3-11.3-5.1-15.3-5.1c-3.7,0-5.8,1.6-5.8,4.2c0,4,4.5,5.4,9.7,7L461.5-440.7z"/>
			</g>
			
				<g id="path21877" transform="translate(0 301.924) translate(629.9022949999999 63.122) scale(0.75) translate(-591.686 50.472)">
				<path class="st1" d="M521.7-461.1v9.5h-40.4v-9.5H521.7z M495.8-445.9c5.3-4.2,11.2,0,11.2,0v35.2h-11.3L495.8-445.9
					L495.8-445.9z"/>
			</g>
			
				<g id="path21879" transform="translate(0 301.924) translate(664.6723849999997 63.122) scale(0.75) translate(-638.04612 50.472)">
				<path class="st1" d="M568-410.7h-12.7l-8.9-16.5H539v16.5h-11.3v-50.4h20.6c12.1,0,19,5.4,19,16.5c0,8.5-3.6,13.8-10.2,16.1
					L568-410.7z M556.7-444.2c0-5.5-3.2-7.6-9.1-7.6h-8.7v15.4h8.7C553.4-436.4,556.7-438.6,556.7-444.2z"/>
			</g>
			
				<g id="path21881" transform="translate(0 301.924) translate(700.0972324999998 63.122) scale(0.75) translate(-685.27925 50.472)">
				<path class="st1" d="M618.4-461.1v29.3c0,13.4-8.3,21.7-21.6,21.7c-13.5,0-21.8-8.3-21.8-21.7v-29.3h11.3v29.3
					c0,7.1,4.2,11.8,10.6,11.8c6.3,0,10.3-4.6,10.3-11.7v-29.3L618.4-461.1z"/>
			</g>
			
				<g id="path21883" transform="translate(0 301.924) translate(737.8811974999999 62.797999999999995) scale(0.75) translate(-735.65787 50.904)">
				<path class="st1" d="M652.8-420c4.9,0,9.6-2.4,12.5-6.3l10.4,4.6c-4.8,7.1-13.1,11.6-23,11.6c-15.6,0-27.3-11.1-27.3-25.8
					c0-14.5,11.7-25.6,27.3-25.6c10,0,18.4,4.5,23.2,11.6l-10.4,4.7c-3-3.9-7.6-6.3-12.6-6.3c-8.4,0-16.1,6.9-16.1,15.8
					C636.6-427.1,644.4-420,652.8-420L652.8-420z"/>
			</g>
			<g id="path21885" transform="translate(0 301.924) translate(777.6640175 63.122) scale(0.75) translate(-788.70163 50.472)">
				<path class="st1" d="M718.8-461.1v9.5h-40.4v-9.5H718.8z M692.8-445.9c5.3-4.2,11.2,0,11.2,0v35.2h-11.3L692.8-445.9
					L692.8-445.9z"/>
			</g>
			
				<g id="path21887" transform="translate(0 301.924) translate(812.4881075000001 63.176) scale(0.75) translate(-835.13375 50.4)">
				<path class="st1" d="M724.8-410.7v-50.4h11.3v50.4H724.8z"/>
			</g>
			<g id="path21889" transform="translate(0 301.924) translate(826.7373575 62.852) scale(0.75) translate(-854.13275 50.832)">
				<path class="st1" d="M798.4-435.9c0,14.8-11.7,25.9-27.3,25.9c-15.6,0-27.3-11.1-27.3-25.9c0-14.5,11.7-25.6,27.3-25.6
					C786.6-461.5,798.4-450.5,798.4-435.9z M771.3-420c8.3,0,15.8-7,15.8-15.9c0-8.9-7.6-15.8-15.8-15.8c-8.4,0-16.1,6.9-16.1,15.8
					C755.2-427.1,763-420,771.3-420L771.3-420z"/>
			</g>
			
				<g id="path21891" transform="translate(0 301.924) translate(873.5005100000001 63.176) scale(0.75) translate(-916.48362 50.4)">
				<path class="st1" d="M816.2-461.1l33.6,50.4h-11.6l-21.6-32.8v32.8h-10.5v-50.4H816.2z M849.9-461.1v39
					c-7.1-4.3-9.9-12.6-10.4-14.6v-24.3H849.9z"/>
			</g>
		</g>
		
			<image style="overflow:visible;enable-background:new    ;" width="200" height="200" id="icon" xlink:href="E5074A907F543A2B.png"  transform="matrix(0.75 0 0 0.75 -34.75 2)">
		</image>
	</g>
</g>
</svg>
